<svg xmlns="http://www.w3.org/2000/svg" width="800" height="420" viewBox="0 0 800 420"><style>text{font-family:Arial,Helvetica,sans-serif;fill:#111}.small{font-size:16px}.med{font-size:18px}.big{font-size:22px;font-weight:700}.axis{stroke:#222;stroke-width:2}.grid{stroke:#ccc;stroke-width:1}.shape{stroke:#111;stroke-width:2;fill:none}.fill{fill:#f2f2f2;stroke:#111;stroke-width:2}</style><text x="400" y="35" class="big" text-anchor="middle">Sample Space Diagram</text><rect x="140" y="110" width="360" height="240" class="shape" /><text x="320" y="85" class="med" text-anchor="middle">Spinner B</text><text x="95" y="235" class="med" text-anchor="middle">Spinner A</text><line x1="260.0" y1="110" x2="260.0" y2="350" class="shape" /><line x1="140" y1="190.0" x2="500" y2="190.0" class="shape" /><line x1="380.0" y1="110" x2="380.0" y2="350" class="shape" /><line x1="140" y1="270.0" x2="500" y2="270.0" class="shape" /><text x="200.0" y="95" class="med" text-anchor="middle">1</text><text x="320.0" y="95" class="med" text-anchor="middle">2</text><text x="440.0" y="95" class="med" text-anchor="middle">3</text><text x="120" y="154.0" class="med" text-anchor="middle">A</text><text x="120" y="234.0" class="med" text-anchor="middle">B</text><text x="120" y="314.0" class="med" text-anchor="middle">C</text><text x="200.0" y="154.0" class="med" text-anchor="middle">A1</text><text x="320.0" y="154.0" class="med" text-anchor="middle">A2</text><text x="440.0" y="154.0" class="med" text-anchor="middle">A3</text><text x="200.0" y="234.0" class="med" text-anchor="middle">B1</text><text x="320.0" y="234.0" class="med" text-anchor="middle">B2</text><text x="440.0" y="234.0" class="med" text-anchor="middle">B3</text><text x="200.0" y="314.0" class="med" text-anchor="middle">C1</text><text x="320.0" y="314.0" class="med" text-anchor="middle">C2</text><text x="440.0" y="314.0" class="med" text-anchor="middle">C3</text><text x="600" y="190" class="med" text-anchor="start">Each spinner is fair.</text><text x="600" y="225" class="med" text-anchor="start">Use the grid to list outcomes</text><text x="600" y="255" class="med" text-anchor="start">and count events.</text></svg>