<svg xmlns="http://www.w3.org/2000/svg" width="800" height="420" viewBox="0 0 800 420"><style>text{font-family:Arial,Helvetica,sans-serif;fill:#111}.small{font-size:16px}.med{font-size:18px}.big{font-size:22px;font-weight:700}.axis{stroke:#222;stroke-width:2}.grid{stroke:#ccc;stroke-width:1}.shape{stroke:#111;stroke-width:2;fill:none}.fill{fill:#f2f2f2;stroke:#111;stroke-width:2}</style><text x="400" y="35" class="big" text-anchor="middle">Probability Scale and Spinner</text><line x1="80" y1="120" x2="720" y2="120" class="axis" /><text x="80" y="150" class="med" text-anchor="middle">0</text><text x="240" y="150" class="med" text-anchor="middle">0.25</text><text x="400" y="150" class="med" text-anchor="middle">0.5</text><text x="560" y="150" class="med" text-anchor="middle">0.75</text><text x="720" y="150" class="med" text-anchor="middle">1</text><line x1="80" y1="110" x2="80" y2="130" class="axis" /><line x1="240" y1="110" x2="240" y2="130" class="axis" /><line x1="400" y1="110" x2="400" y2="130" class="axis" /><line x1="560" y1="110" x2="560" y2="130" class="axis" /><line x1="720" y1="110" x2="720" y2="130" class="axis" /><text x="160" y="90" class="small" text-anchor="middle">unlikely</text><text x="400" y="90" class="small" text-anchor="middle">evens</text><text x="650" y="90" class="small" text-anchor="middle">likely</text><circle cx="270" cy="300" r="85" class="shape" /><line x1="270" y1="300" x2="355" y2="300" class="shape" /><line x1="270" y1="300" x2="270" y2="215" class="shape" /><line x1="270" y1="300" x2="210" y2="360" class="shape" /><line x1="270" y1="300" x2="310" y2="375" class="shape" /><text x="315" y="265" class="med" text-anchor="middle">Red</text><text x="230" y="275" class="med" text-anchor="middle">Blue</text><text x="240" y="355" class="med" text-anchor="middle">Green</text><text x="310" y="345" class="med" text-anchor="middle">Yellow</text><text x="540" y="250" class="med" text-anchor="start">Spinner has equal sections.</text><text x="540" y="285" class="med" text-anchor="start">Colours: Red, Blue, Green, Yellow</text><text x="540" y="320" class="med" text-anchor="start">Use it for Questions 1–3.</text></svg>