<svg xmlns="http://www.w3.org/2000/svg" width="800" height="420" viewBox="0 0 800 420"><style>text{font-family:Arial,Helvetica,sans-serif;fill:#111}.small{font-size:16px}.med{font-size:18px}.big{font-size:22px;font-weight:700}.axis{stroke:#222;stroke-width:2}.grid{stroke:#ccc;stroke-width:1}.shape{stroke:#111;stroke-width:2;fill:none}.fill{fill:#f2f2f2;stroke:#111;stroke-width:2}</style><text x="400" y="35" class="big" text-anchor="middle">Tree Diagram — Independent Events</text><text x="80" y="125" class="med" text-anchor="start">Game 1</text><text x="410" y="125" class="med" text-anchor="start">Game 2</text><line x1="120" y1="210" x2="260" y2="150" class="shape" /><line x1="120" y1="210" x2="260" y2="270" class="shape" /><text x="275" y="155" class="med" text-anchor="start">Win</text><text x="275" y="275" class="med" text-anchor="start">Lose</text><text x="220" y="170" class="med" text-anchor="middle">0.6</text><text x="220" y="255" class="med" text-anchor="middle">0.4</text><line x1="260" y1="150" x2="500" y2="120" class="shape" /><line x1="260" y1="150" x2="500" y2="180" class="shape" /><line x1="260" y1="270" x2="500" y2="240" class="shape" /><line x1="260" y1="270" x2="500" y2="300" class="shape" /><text x="520" y="125" class="med" text-anchor="start">Win</text><text x="520" y="185" class="med" text-anchor="start">Lose</text><text x="520" y="245" class="med" text-anchor="start">Win</text><text x="520" y="305" class="med" text-anchor="start">Lose</text><text x="380" y="132" class="med" text-anchor="middle">0.7</text><text x="380" y="172" class="med" text-anchor="middle">0.3</text><text x="380" y="252" class="med" text-anchor="middle">0.7</text><text x="380" y="292" class="med" text-anchor="middle">0.3</text><text x="610" y="150" class="med" text-anchor="start">Probabilities on</text><text x="610" y="180" class="med" text-anchor="start">Game 2 stay the same.</text></svg>