<svg xmlns="http://www.w3.org/2000/svg" width="800" height="420" viewBox="0 0 800 420"><style>text{font-family:Arial,Helvetica,sans-serif;fill:#111}.small{font-size:16px}.med{font-size:18px}.big{font-size:22px;font-weight:700}.axis{stroke:#222;stroke-width:2}.grid{stroke:#ccc;stroke-width:1}.shape{stroke:#111;stroke-width:2;fill:none}.fill{fill:#f2f2f2;stroke:#111;stroke-width:2}</style><text x="400" y="35" class="big" text-anchor="middle">Two-Way Table</text><rect x="130" y="90" width="540" height="250" class="shape" /><line x1="265.0" y1="90" x2="265.0" y2="340" class="shape" /><line x1="400.0" y1="90" x2="400.0" y2="340" class="shape" /><line x1="535.0" y1="90" x2="535.0" y2="340" class="shape" /><line x1="130" y1="152.5" x2="670" y2="152.5" class="shape" /><line x1="130" y1="215.0" x2="670" y2="215.0" class="shape" /><line x1="130" y1="277.5" x2="670" y2="277.5" class="shape" /><text x="197.5" y="125" class="med" text-anchor="middle"></text><text x="332.5" y="125" class="med" text-anchor="middle">Bus</text><text x="467.5" y="125" class="med" text-anchor="middle">Walk</text><text x="602.5" y="125" class="med" text-anchor="middle">Total</text><text x="197.5" y="183.75" class="med" text-anchor="middle">Year 10</text><text x="332.5" y="183.75" class="med" text-anchor="middle">18</text><text x="467.5" y="183.75" class="med" text-anchor="middle">12</text><text x="602.5" y="183.75" class="med" text-anchor="middle">30</text><text x="197.5" y="246.25" class="med" text-anchor="middle">Year 11</text><text x="332.5" y="246.25" class="med" text-anchor="middle">22</text><text x="467.5" y="246.25" class="med" text-anchor="middle">8</text><text x="602.5" y="246.25" class="med" text-anchor="middle">30</text><text x="197.5" y="308.75" class="med" text-anchor="middle">Total</text><text x="332.5" y="308.75" class="med" text-anchor="middle">40</text><text x="467.5" y="308.75" class="med" text-anchor="middle">20</text><text x="602.5" y="308.75" class="med" text-anchor="middle">60</text><text x="400" y="382" class="med" text-anchor="middle">Travel to school survey</text></svg>