<svg xmlns="http://www.w3.org/2000/svg" width="800" height="420" viewBox="0 0 800 420"><style>text{font-family:Arial,Helvetica,sans-serif;fill:#111}.small{font-size:16px}.med{font-size:18px}.big{font-size:22px;font-weight:700}.axis{stroke:#222;stroke-width:2}.grid{stroke:#ccc;stroke-width:1}.shape{stroke:#111;stroke-width:2;fill:none}.fill{fill:#f2f2f2;stroke:#111;stroke-width:2}</style><text x="400" y="35" class="big" text-anchor="middle">Cumulative Frequency Graph</text><line x1="100" y1="340" x2="700" y2="340" class="axis" /><line x1="100" y1="340" x2="100" y2="90" class="axis" /><text x="410" y="385" class="med" text-anchor="middle">Height (cm)</text><text x="45" y="200" class="med" text-anchor="middle">Cum. freq.</text><line x1="120" y1="335" x2="120" y2="345" class="axis" /><text x="120" y="365" class="small" text-anchor="middle">150</text><line x1="236" y1="335" x2="236" y2="345" class="axis" /><text x="236" y="365" class="small" text-anchor="middle">160</text><line x1="352" y1="335" x2="352" y2="345" class="axis" /><text x="352" y="365" class="small" text-anchor="middle">170</text><line x1="468" y1="335" x2="468" y2="345" class="axis" /><text x="468" y="365" class="small" text-anchor="middle">180</text><line x1="584" y1="335" x2="584" y2="345" class="axis" /><text x="584" y="365" class="small" text-anchor="middle">190</text><line x1="700" y1="335" x2="700" y2="345" class="axis" /><text x="700" y="365" class="small" text-anchor="middle">200</text><line x1="95" y1="340" x2="105" y2="340" class="axis" /><text x="68" y="345" class="small" text-anchor="middle">0</text><line x1="95" y1="290" x2="105" y2="290" class="axis" /><text x="68" y="295" class="small" text-anchor="middle">12</text><line x1="95" y1="240" x2="105" y2="240" class="axis" /><text x="68" y="245" class="small" text-anchor="middle">24</text><line x1="95" y1="190" x2="105" y2="190" class="axis" /><text x="68" y="195" class="small" text-anchor="middle">36</text><line x1="95" y1="140" x2="105" y2="140" class="axis" /><text x="68" y="145" class="small" text-anchor="middle">48</text><line x1="95" y1="90" x2="105" y2="90" class="axis" /><text x="68" y="95" class="small" text-anchor="middle">60</text><polyline points="120.0,319.1666666666667 236.0,277.5 352.0,215.0 468.0,152.5 584.0,110.83333333333334 700.0,90.0" class="shape" fill="none" /><circle cx="120.0" cy="319.1666666666667" r="3" class="shape" fill="#111"/><circle cx="236.0" cy="277.5" r="3" class="shape" fill="#111"/><circle cx="352.0" cy="215.0" r="3" class="shape" fill="#111"/><circle cx="468.0" cy="152.5" r="3" class="shape" fill="#111"/><circle cx="584.0" cy="110.83333333333334" r="3" class="shape" fill="#111"/><circle cx="700.0" cy="90.0" r="3" class="shape" fill="#111"/></svg>