<svg xmlns="http://www.w3.org/2000/svg" width="800" height="420" viewBox="0 0 800 420"><style>text{font-family:Arial,Helvetica,sans-serif;fill:#111}.small{font-size:16px}.med{font-size:18px}.big{font-size:22px;font-weight:700}.axis{stroke:#222;stroke-width:2}.grid{stroke:#ccc;stroke-width:1}.shape{stroke:#111;stroke-width:2;fill:none}.fill{fill:#f2f2f2;stroke:#111;stroke-width:2}</style><text x="400" y="35" class="big" text-anchor="middle">Bar Chart and Pie Chart</text><line x1="80" y1="320" x2="320" y2="320" class="axis" /><line x1="80" y1="320" x2="80" y2="120" class="axis" /><rect x="120" y="200" width="30" height="120" class="fill" /><text x="135" y="345" class="med" text-anchor="middle">A</text><rect x="170" y="240" width="30" height="80" class="fill" /><text x="185" y="345" class="med" text-anchor="middle">B</text><rect x="220" y="170" width="30" height="150" class="fill" /><text x="235" y="345" class="med" text-anchor="middle">C</text><rect x="270" y="220" width="30" height="100" class="fill" /><text x="285" y="345" class="med" text-anchor="middle">D</text><text x="200" y="110" class="med" text-anchor="middle">Books read in a month</text><line x1="75" y1="320" x2="85" y2="320" class="axis" /><text x="60" y="325" class="small" text-anchor="middle">0</text><line x1="75" y1="270" x2="85" y2="270" class="axis" /><text x="60" y="275" class="small" text-anchor="middle">5</text><line x1="75" y1="220" x2="85" y2="220" class="axis" /><text x="60" y="225" class="small" text-anchor="middle">10</text><line x1="75" y1="170" x2="85" y2="170" class="axis" /><text x="60" y="175" class="small" text-anchor="middle">15</text><line x1="75" y1="120" x2="85" y2="120" class="axis" /><text x="60" y="125" class="small" text-anchor="middle">20</text><circle cx="560" cy="235" r="100" class="shape" /><line x1="560" y1="235" x2="660" y2="235" class="shape" /><line x1="560" y1="235" x2="580" y2="140" class="shape" /><line x1="560" y1="235" x2="474" y2="185" class="shape" /><line x1="560" y1="235" x2="525" y2="329" class="shape" /><text x="625" y="185" class="small" text-anchor="start">90°</text><text x="555" y="125" class="small" text-anchor="start">72°</text><text x="435" y="180" class="small" text-anchor="start">108°</text><text x="520" y="345" class="small" text-anchor="start">90°</text><text x="560" y="360" class="med" text-anchor="middle">Favourite sports survey</text></svg>