<svg xmlns="http://www.w3.org/2000/svg" width="800" height="420" viewBox="0 0 800 420"><style>text{font-family:Arial,Helvetica,sans-serif;fill:#111}.small{font-size:16px}.med{font-size:18px}.big{font-size:22px;font-weight:700}.axis{stroke:#222;stroke-width:2}.grid{stroke:#ccc;stroke-width:1}.shape{stroke:#111;stroke-width:2;fill:none}.fill{fill:#f2f2f2;stroke:#111;stroke-width:2}</style><text x="400" y="35" class="big" text-anchor="middle">Questionnaire Results</text><rect x="150" y="100" width="500" height="220" class="shape" /><line x1="316.66666666666663" y1="100" x2="316.66666666666663" y2="320" class="shape" /><line x1="483.3333333333333" y1="100" x2="483.3333333333333" y2="320" class="shape" /><line x1="150" y1="136.66666666666666" x2="650" y2="136.66666666666666" class="shape" /><line x1="150" y1="173.33333333333331" x2="650" y2="173.33333333333331" class="shape" /><line x1="150" y1="210.0" x2="650" y2="210.0" class="shape" /><line x1="150" y1="246.66666666666666" x2="650" y2="246.66666666666666" class="shape" /><line x1="150" y1="283.33333333333337" x2="650" y2="283.33333333333337" class="shape" /><text x="233.33333333333331" y="135.0" class="med" text-anchor="middle">Question</text><text x="400.0" y="135.0" class="med" text-anchor="middle">Yes</text><text x="566.6666666666667" y="135.0" class="med" text-anchor="middle">No</text><text x="233.33333333333331" y="156.83333333333334" class="med" text-anchor="middle">Walk to school?</text><text x="400.0" y="156.83333333333334" class="med" text-anchor="middle">18</text><text x="566.6666666666667" y="156.83333333333334" class="med" text-anchor="middle">12</text><text x="233.33333333333331" y="193.5" class="med" text-anchor="middle">Cycle to school?</text><text x="400.0" y="193.5" class="med" text-anchor="middle">7</text><text x="566.6666666666667" y="193.5" class="med" text-anchor="middle">23</text><text x="233.33333333333331" y="230.16666666666666" class="med" text-anchor="middle">Use bus?</text><text x="400.0" y="230.16666666666666" class="med" text-anchor="middle">10</text><text x="566.6666666666667" y="230.16666666666666" class="med" text-anchor="middle">20</text><text x="233.33333333333331" y="266.83333333333337" class="med" text-anchor="middle">Play sport weekly?</text><text x="400.0" y="266.83333333333337" class="med" text-anchor="middle">21</text><text x="566.6666666666667" y="266.83333333333337" class="med" text-anchor="middle">9</text><text x="233.33333333333331" y="303.5" class="med" text-anchor="middle">Read daily?</text><text x="400.0" y="303.5" class="med" text-anchor="middle">15</text><text x="566.6666666666667" y="303.5" class="med" text-anchor="middle">15</text></svg>