<svg xmlns="http://www.w3.org/2000/svg" width="800" height="420" viewBox="0 0 800 420"><style>text{font-family:Arial,Helvetica,sans-serif;fill:#111}.small{font-size:16px}.med{font-size:18px}.big{font-size:22px;font-weight:700}.axis{stroke:#222;stroke-width:2}.grid{stroke:#ccc;stroke-width:1}.shape{stroke:#111;stroke-width:2;fill:none}.fill{fill:#f2f2f2;stroke:#111;stroke-width:2}</style><text x="400" y="35" class="big" text-anchor="middle">Box Plots</text><line x1="80" y1="180" x2="720" y2="180" class="axis" /><line x1="100" y1="172" x2="100" y2="188" class="axis" /><text x="100" y="208" class="small" text-anchor="middle">10</text><line x1="200" y1="172" x2="200" y2="188" class="axis" /><text x="200" y="208" class="small" text-anchor="middle">20</text><line x1="300" y1="172" x2="300" y2="188" class="axis" /><text x="300" y="208" class="small" text-anchor="middle">30</text><line x1="400" y1="172" x2="400" y2="188" class="axis" /><text x="400" y="208" class="small" text-anchor="middle">40</text><line x1="500" y1="172" x2="500" y2="188" class="axis" /><text x="500" y="208" class="small" text-anchor="middle">50</text><line x1="600" y1="172" x2="600" y2="188" class="axis" /><text x="600" y="208" class="small" text-anchor="middle">60</text><line x1="700" y1="172" x2="700" y2="188" class="axis" /><text x="700" y="208" class="small" text-anchor="middle">70</text><line x1="140" y1="120" x2="620" y2="120" class="shape" /><line x1="140" y1="105" x2="140" y2="135" class="shape" /><line x1="620" y1="105" x2="620" y2="135" class="shape" /><rect x="240" y="100" width="240" height="40" class="shape" /><line x1="360" y1="100" x2="360" y2="140" class="shape" /><text x="70" y="125" class="med" text-anchor="start">Class A</text><line x1="170" y1="270" x2="670" y2="270" class="shape" /><line x1="170" y1="255" x2="170" y2="285" class="shape" /><line x1="670" y1="255" x2="670" y2="285" class="shape" /><rect x="280" y="250" width="260" height="40" class="shape" /><line x1="430" y1="250" x2="430" y2="290" class="shape" /><text x="70" y="275" class="med" text-anchor="start">Class B</text></svg>