<svg xmlns="http://www.w3.org/2000/svg" width="800" height="420" viewBox="0 0 800 420"><style>text{font-family:Arial,Helvetica,sans-serif;fill:#111}.small{font-size:16px}.med{font-size:18px}.big{font-size:22px;font-weight:700}.axis{stroke:#222;stroke-width:2}.grid{stroke:#ccc;stroke-width:1}.shape{stroke:#111;stroke-width:2;fill:none}.fill{fill:#f2f2f2;stroke:#111;stroke-width:2}</style><text x="400" y="35" class="big" text-anchor="middle">Scatter Graph</text><line x1="100" y1="340" x2="700" y2="340" class="axis" /><line x1="100" y1="340" x2="100" y2="90" class="axis" /><text x="410" y="385" class="med" text-anchor="middle">Hours revised</text><text x="40" y="220" class="med" text-anchor="middle">Test score</text><line x1="150" y1="335" x2="150" y2="345" class="axis" /><line x1="250" y1="335" x2="250" y2="345" class="axis" /><line x1="350" y1="335" x2="350" y2="345" class="axis" /><line x1="450" y1="335" x2="450" y2="345" class="axis" /><line x1="550" y1="335" x2="550" y2="345" class="axis" /><line x1="650" y1="335" x2="650" y2="345" class="axis" /><text x="150" y="365" class="small" text-anchor="middle">1</text><text x="250" y="365" class="small" text-anchor="middle">2</text><text x="350" y="365" class="small" text-anchor="middle">3</text><text x="450" y="365" class="small" text-anchor="middle">4</text><text x="550" y="365" class="small" text-anchor="middle">5</text><text x="650" y="365" class="small" text-anchor="middle">6</text><line x1="95" y1="300" x2="105" y2="300" class="axis" /><text x="70" y="305" class="small" text-anchor="middle">20</text><line x1="95" y1="250" x2="105" y2="250" class="axis" /><text x="70" y="255" class="small" text-anchor="middle">30</text><line x1="95" y1="200" x2="105" y2="200" class="axis" /><text x="70" y="205" class="small" text-anchor="middle">40</text><line x1="95" y1="150" x2="105" y2="150" class="axis" /><text x="70" y="155" class="small" text-anchor="middle">50</text><line x1="95" y1="100" x2="105" y2="100" class="axis" /><text x="70" y="105" class="small" text-anchor="middle">60</text><circle cx="170" cy="295" r="4" class="shape" fill="#111"/><circle cx="240" cy="270" r="4" class="shape" fill="#111"/><circle cx="290" cy="250" r="4" class="shape" fill="#111"/><circle cx="360" cy="230" r="4" class="shape" fill="#111"/><circle cx="430" cy="200" r="4" class="shape" fill="#111"/><circle cx="520" cy="180" r="4" class="shape" fill="#111"/><circle cx="590" cy="145" r="4" class="shape" fill="#111"/><circle cx="650" cy="120" r="4" class="shape" fill="#111"/><line x1="160" y1="300" x2="660" y2="110" class="shape" stroke-dasharray="8 6"/><text x="610" y="95" class="small" text-anchor="start">line of best fit</text></svg>