<svg xmlns="http://www.w3.org/2000/svg" width="800" height="420" viewBox="0 0 800 420"><style>text{font-family:Arial,Helvetica,sans-serif;fill:#111}.small{font-size:16px}.med{font-size:18px}.big{font-size:22px;font-weight:700}.axis{stroke:#222;stroke-width:2}.grid{stroke:#ccc;stroke-width:1}.shape{stroke:#111;stroke-width:2;fill:none}.fill{fill:#f2f2f2;stroke:#111;stroke-width:2}</style><text x="400" y="35" class="big" text-anchor="middle">Histogram</text><line x1="100" y1="340" x2="700" y2="340" class="axis" /><line x1="100" y1="340" x2="100" y2="90" class="axis" /><text x="410" y="385" class="med" text-anchor="middle">Time (minutes)</text><text x="45" y="200" class="med" text-anchor="middle">Freq. density</text><rect x="120" y="164" width="100" height="176" class="fill" /><rect x="220" y="208" width="100" height="132" class="fill" /><rect x="320" y="142" width="100" height="198" class="fill" /><rect x="420" y="230" width="200" height="110" class="fill" /><rect x="620" y="186" width="100" height="154" class="fill" /><line x1="120" y1="335" x2="120" y2="345" class="axis" /><text x="120" y="365" class="small" text-anchor="middle">0</text><line x1="220" y1="335" x2="220" y2="345" class="axis" /><text x="220" y="365" class="small" text-anchor="middle">10</text><line x1="320" y1="335" x2="320" y2="345" class="axis" /><text x="320" y="365" class="small" text-anchor="middle">20</text><line x1="420" y1="335" x2="420" y2="345" class="axis" /><text x="420" y="365" class="small" text-anchor="middle">30</text><line x1="520" y1="335" x2="520" y2="345" class="axis" /><text x="520" y="365" class="small" text-anchor="middle">40</text><line x1="620" y1="335" x2="620" y2="345" class="axis" /><text x="620" y="365" class="small" text-anchor="middle">50</text><line x1="720" y1="335" x2="720" y2="345" class="axis" /><text x="720" y="365" class="small" text-anchor="middle">60</text><line x1="95" y1="340" x2="105" y2="340" class="axis" /><text x="70" y="345" class="small" text-anchor="middle">0</text><line x1="95" y1="296" x2="105" y2="296" class="axis" /><text x="70" y="301" class="small" text-anchor="middle">2</text><line x1="95" y1="252" x2="105" y2="252" class="axis" /><text x="70" y="257" class="small" text-anchor="middle">4</text><line x1="95" y1="208" x2="105" y2="208" class="axis" /><text x="70" y="213" class="small" text-anchor="middle">6</text><line x1="95" y1="164" x2="105" y2="164" class="axis" /><text x="70" y="169" class="small" text-anchor="middle">8</text><line x1="95" y1="120" x2="105" y2="120" class="axis" /><text x="70" y="125" class="small" text-anchor="middle">10</text></svg>